<?xml version="1.0" encoding="utf-8"?>
<!-- Generator: Adobe Illustrator 25.4.1, SVG Export Plug-In . SVG Version: 6.00 Build 0)  -->
<svg version="1.1" id="圖層_1" xmlns="http://www.w3.org/2000/svg" xmlns:xlink="http://www.w3.org/1999/xlink" x="0px" y="0px"
	 viewBox="0 0 131 40" style="enable-background:new 0 0 131 40;" xml:space="preserve">
<style type="text/css">
	.st0{fill:url(#SVGID_1_);}
	.st1{fill:#FFFFFF;}
	.st2{fill:#1B1D1E;}
	.st3{fill:#D4EDFC;}
	.st4{fill:url(#SVGID_00000054257599808952954060000005615038898936471689_);}
	.st5{fill:url(#SVGID_00000073680607511607529440000002552413518818107042_);}
	.st6{fill:url(#SVGID_00000062883518280731338200000013015701011144192672_);}
	.st7{fill:url(#SVGID_00000093885174144832560640000012437507258870594711_);}
	.st8{fill:url(#SVGID_00000119823674532316289460000008056541208166309265_);}
	.st9{fill:url(#SVGID_00000105399386159904961230000014573771699695431871_);}
	.st10{fill:url(#SVGID_00000155121732138644853990000016149617238887190660_);}
	.st11{fill:url(#SVGID_00000047044071591302565910000005178987176774435767_);}
	.st12{fill:url(#SVGID_00000155134278258997447590000014466143454805212821_);}
	.st13{fill:url(#SVGID_00000062884797447531432540000015897067192128193681_);}
</style>
<g>
	<g>
		<linearGradient id="SVGID_1_" gradientUnits="userSpaceOnUse" x1="7.3351" y1="25.2411" x2="29.2288" y2="25.2411">
			<stop  offset="0" style="stop-color:#0EB4EE"/>
			<stop  offset="0.999" style="stop-color:#2D53D8"/>
		</linearGradient>
		<polygon class="st0" points="7.3,22.4 29.2,15.6 28.5,34.6 10.3,34.9 		"/>
		<g>
			<path class="st1" d="M28.1,27.2c0,1.7-2.1,3.1-4.6,3.1c-2.5,0-4.6-1.4-4.6-3.1c0-1.7,2.1-3.1,4.6-3.1
				C26.1,24.1,28.1,25.5,28.1,27.2z"/>
			<path class="st2" d="M21,27.7c0,0.4-0.3,0.7-0.7,0.7c-0.4,0-0.7-0.3-0.7-0.7c0-0.4,0.3-0.7,0.7-0.7C20.7,27,21,27.3,21,27.7z"/>
			<path class="st1" d="M9.1,27.7c0,1.7,2.1,3.1,4.6,3.1c2.5,0,4.6-1.4,4.6-3.1c0-1.7-2.1-3.1-4.6-3.1C11.2,24.6,9.1,26,9.1,27.7z"
				/>
			<path class="st2" d="M16.2,28.2c0,0.4,0.3,0.7,0.7,0.7c0.4,0,0.7-0.3,0.7-0.7c0-0.4-0.3-0.7-0.7-0.7
				C16.6,27.5,16.2,27.8,16.2,28.2z"/>
		</g>
		<g>
			<polygon class="st3" points="26.3,16.5 25,19.9 22.1,20.5 23.2,17.5 			"/>
			<polygon class="st3" points="10.9,21.3 10.3,23 7.6,23.6 7.3,22.4 			"/>
			<polygon class="st3" points="19,18.8 18.1,21.4 14.2,22.2 15,20 			"/>
		</g>
	</g>
	<g>
		
			<linearGradient id="SVGID_00000078032635708193965330000015796615122427272067_" gradientUnits="userSpaceOnUse" x1="6.3191" y1="17.6212" x2="14.9103" y2="17.6212">
			<stop  offset="0" style="stop-color:#0EB4EE"/>
			<stop  offset="0.999" style="stop-color:#2D53D8"/>
		</linearGradient>
		<polygon style="fill:url(#SVGID_00000078032635708193965330000015796615122427272067_);" points="6.3,18.1 11.5,19.5 14.9,16.9 
			9.1,15.7 		"/>
		
			<linearGradient id="SVGID_00000018199465996255062090000004997838659282563484_" gradientUnits="userSpaceOnUse" x1="18.7928" y1="6.0872" x2="25.8375" y2="6.0872">
			<stop  offset="0" style="stop-color:#0EB4EE"/>
			<stop  offset="0.999" style="stop-color:#2D53D8"/>
		</linearGradient>
		<polygon style="fill:url(#SVGID_00000018199465996255062090000004997838659282563484_);" points="25.8,8.7 24.3,2.7 18.8,7.5 
			24.9,9.4 		"/>
		
			<linearGradient id="SVGID_00000155836762526504971760000017509908866541686454_" gradientUnits="userSpaceOnUse" x1="12.1911" y1="12.4882" x2="22.4852" y2="12.4882">
			<stop  offset="0" style="stop-color:#0EB4EE"/>
			<stop  offset="0.999" style="stop-color:#2D53D8"/>
		</linearGradient>
		<polygon style="fill:url(#SVGID_00000155836762526504971760000017509908866541686454_);" points="22.5,11.2 15.7,10.1 12.2,13.1 
			17.6,14.9 		"/>
		<polygon class="st3" points="22.4,11.3 25,9.4 18.9,7.4 15.7,10.1 		"/>
		<polygon class="st3" points="12.3,13 9,15.8 14.8,17 18.4,14.3 		"/>
		<polygon class="st3" points="4.6,19.6 7.4,22.7 7.9,22.2 11.6,19.4 6.3,18.1 		"/>
	</g>
</g>
<g>
	
		<linearGradient id="SVGID_00000152241587134167379080000011969140322979560857_" gradientUnits="userSpaceOnUse" x1="-0.4925" y1="19.1491" x2="129.8406" y2="21.4824">
		<stop  offset="0" style="stop-color:#2D53D8"/>
		<stop  offset="0.2943" style="stop-color:#207AE1"/>
		<stop  offset="0.5857" style="stop-color:#169AE8"/>
		<stop  offset="0.8308" style="stop-color:#10ADEC"/>
		<stop  offset="1" style="stop-color:#0EB4EE"/>
	</linearGradient>
	<path style="fill:url(#SVGID_00000152241587134167379080000011969140322979560857_);" d="M35.4,27.2c0.1-0.8,0.1-1.6,0.1-2.6V15
		c0-1,0-1.7-0.1-2.6c0.8,0,1.5,0.1,2.6,0.1h3.9c3.5,0,5.4,1.7,5.4,4.7c0,3.1-2,5-5.4,5H39v2.3c0,1,0.1,1.9,0.1,2.7H35.4z M41.6,19.3
		c1.2,0,2-0.7,2-1.9c0-1.2-0.7-1.9-2-1.9H39v3.8H41.6z"/>
	
		<linearGradient id="SVGID_00000041988979557347575730000009538597084310418586_" gradientUnits="userSpaceOnUse" x1="-0.5226" y1="20.8304" x2="129.8105" y2="23.1638">
		<stop  offset="0" style="stop-color:#2D53D8"/>
		<stop  offset="0.2943" style="stop-color:#207AE1"/>
		<stop  offset="0.5857" style="stop-color:#169AE8"/>
		<stop  offset="0.8308" style="stop-color:#10ADEC"/>
		<stop  offset="1" style="stop-color:#0EB4EE"/>
	</linearGradient>
	<path style="fill:url(#SVGID_00000041988979557347575730000009538597084310418586_);" d="M48.2,21.8c0-3.5,2.3-5.8,5.8-5.8
		c3.6,0,5.8,2.2,5.8,5.7c0,3.5-2.3,5.8-5.8,5.8C50.5,27.6,48.2,25.3,48.2,21.8z M51.6,21.8c0,2,0.9,3.1,2.4,3.1
		c1.5,0,2.4-1.1,2.4-3.1c0-2-0.9-3.1-2.4-3.1C52.5,18.7,51.6,19.8,51.6,21.8z"/>
	
		<linearGradient id="SVGID_00000054946245532177642130000017341929211059136682_" gradientUnits="userSpaceOnUse" x1="-0.5448" y1="22.0723" x2="129.7883" y2="24.4056">
		<stop  offset="0" style="stop-color:#2D53D8"/>
		<stop  offset="0.2943" style="stop-color:#207AE1"/>
		<stop  offset="0.5857" style="stop-color:#169AE8"/>
		<stop  offset="0.8308" style="stop-color:#10ADEC"/>
		<stop  offset="1" style="stop-color:#0EB4EE"/>
	</linearGradient>
	<path style="fill:url(#SVGID_00000054946245532177642130000017341929211059136682_);" d="M61.3,30.4c0.1-0.8,0.1-1.6,0.1-2.6v-8.6
		c0-1.1,0-1.9-0.1-2.8h3.5V17c0,0.1,0,0.2,0,0.3c1.1-0.9,2.1-1.3,3.6-1.3c1.6,0,2.8,0.5,3.7,1.4c0.9,0.9,1.4,2.3,1.4,4.1
		c0,1.8-0.5,3.3-1.5,4.3c-0.9,0.9-2.2,1.4-3.6,1.4c-0.8,0-1.7-0.2-2.4-0.5c-0.5-0.2-0.7-0.4-1.2-0.8c0,0.2,0,0.4,0,0.6v1.2
		c0,1,0,1.8,0.1,2.6H61.3z M69.3,23.9c0.5-0.5,0.8-1.3,0.8-2.3c0-1.8-1-2.8-2.6-2.8c-1.5,0-2.7,1.3-2.7,2.9c0,1.7,1.2,2.9,2.8,2.9
		C68.2,24.6,68.8,24.3,69.3,23.9z"/>
	
		<linearGradient id="SVGID_00000120557105572841891690000013022579778035452606_" gradientUnits="userSpaceOnUse" x1="-0.4788" y1="18.3853" x2="129.8543" y2="20.7186">
		<stop  offset="0" style="stop-color:#2D53D8"/>
		<stop  offset="0.2943" style="stop-color:#207AE1"/>
		<stop  offset="0.5857" style="stop-color:#169AE8"/>
		<stop  offset="0.8308" style="stop-color:#10ADEC"/>
		<stop  offset="1" style="stop-color:#0EB4EE"/>
	</linearGradient>
	<path style="fill:url(#SVGID_00000120557105572841891690000013022579778035452606_);" d="M84.5,17.6c-0.3-1.6-1.3-2.4-2.8-2.4
		c-2.2,0-3.4,1.7-3.4,4.6c0,2.9,1.3,4.6,3.5,4.6c1,0,1.8-0.4,2.3-1.1c0.3-0.4,0.4-0.8,0.5-1.5l3.7,0.5c-0.3,1.5-0.7,2.4-1.5,3.2
		c-1.1,1.3-2.8,1.9-4.9,1.9c-2.2,0-4-0.7-5.2-1.9c-1.3-1.3-2-3.4-2-5.7c0-2.4,0.7-4.4,2.1-5.8c1.2-1.2,3-1.8,5.1-1.8
		c2.3,0,4.1,0.8,5.2,2.3c0.6,0.7,0.9,1.4,1.1,2.4L84.5,17.6z"/>
	
		<linearGradient id="SVGID_00000088098003140871048550000012668539984784099221_" gradientUnits="userSpaceOnUse" x1="-0.5094" y1="20.0943" x2="129.8237" y2="22.4276">
		<stop  offset="0" style="stop-color:#2D53D8"/>
		<stop  offset="0.2943" style="stop-color:#207AE1"/>
		<stop  offset="0.5857" style="stop-color:#169AE8"/>
		<stop  offset="0.8308" style="stop-color:#10ADEC"/>
		<stop  offset="1" style="stop-color:#0EB4EE"/>
	</linearGradient>
	<path style="fill:url(#SVGID_00000088098003140871048550000012668539984784099221_);" d="M89.3,21.8c0-3.5,2.3-5.8,5.8-5.8
		c3.6,0,5.8,2.2,5.8,5.7c0,3.5-2.3,5.8-5.8,5.8C91.6,27.6,89.3,25.3,89.3,21.8z M92.7,21.8c0,2,0.9,3.1,2.5,3.1s2.4-1.1,2.4-3.1
		c0-2-0.9-3.1-2.4-3.1C93.6,18.7,92.7,19.8,92.7,21.8z"/>
	
		<linearGradient id="SVGID_00000129174706693500957240000013038557955068619686_" gradientUnits="userSpaceOnUse" x1="-0.504" y1="19.7942" x2="129.829" y2="22.1276">
		<stop  offset="0" style="stop-color:#2D53D8"/>
		<stop  offset="0.2943" style="stop-color:#207AE1"/>
		<stop  offset="0.5857" style="stop-color:#169AE8"/>
		<stop  offset="0.8308" style="stop-color:#10ADEC"/>
		<stop  offset="1" style="stop-color:#0EB4EE"/>
	</linearGradient>
	<path style="fill:url(#SVGID_00000129174706693500957240000013038557955068619686_);" d="M110.3,19.6c-0.8-0.2-1.3-0.3-1.8-0.3
		c-0.9,0-1.6,0.3-2.1,1c-0.3,0.4-0.5,0.8-0.5,1.6v2.7c0,1.1,0,1.8,0.1,2.6h-3.6c0.1-0.9,0.1-1.5,0.1-2.7v-5.4c0-1.3,0-1.9-0.1-2.7
		h3.5v1.4c0.9-1.1,1.9-1.6,3.5-1.6c0.6,0,0.9,0,1.7,0.2L110.3,19.6z"/>
	
		<linearGradient id="SVGID_00000082335376257414438480000009029411578388970392_" gradientUnits="userSpaceOnUse" x1="-0.5004" y1="19.5914" x2="129.8327" y2="21.9247">
		<stop  offset="0" style="stop-color:#2D53D8"/>
		<stop  offset="0.2943" style="stop-color:#207AE1"/>
		<stop  offset="0.5857" style="stop-color:#169AE8"/>
		<stop  offset="0.8308" style="stop-color:#10ADEC"/>
		<stop  offset="1" style="stop-color:#0EB4EE"/>
	</linearGradient>
	<path style="fill:url(#SVGID_00000082335376257414438480000009029411578388970392_);" d="M112.2,27.2c0.1-0.8,0.1-1.6,0.1-2.7v-5.4
		c0-1.2,0-2-0.1-2.7h3.5v0.7c0,0.1,0,0.4,0,0.5c1.1-1.1,2.2-1.5,3.6-1.5c1.2,0,2.2,0.3,2.8,1c0.7,0.7,1,1.6,1,3v4.4
		c0,1,0.1,1.9,0.1,2.6h-3.7c0.1-0.8,0.1-1.6,0.1-2.7v-3.6c0-0.7-0.1-1-0.3-1.3c-0.2-0.3-0.6-0.5-1.2-0.5c-1,0-1.9,0.6-2.6,1.9v3.6
		c0,1,0,1.7,0.1,2.7H112.2z"/>
</g>
</svg>
